<svg width="327" height="104" viewBox="0 0 327 104" fill="none" xmlns="http://www.w3.org/2000/svg">
<rect y="0.279999" width="72" height="72" rx="36" fill="#FAFAFA"/>
<path d="M34.0001 28.03H35.2501V32.78C35.2501 33.19 35.5901 33.53 36.0001 33.53C36.4101 33.53 36.7501 33.19 36.7501 32.78V28.03H38.0001C38.4101 28.03 38.7501 27.69 38.7501 27.28C38.7501 26.87 38.4101 26.53 38.0001 26.53H34.0001C33.5901 26.53 33.2501 26.87 33.2501 27.28C33.2501 27.69 33.5901 28.03 34.0001 28.03Z" fill="#4894FE"/>
<path d="M38.0001 44.53H36.7501V39.78C36.7501 39.37 36.4101 39.03 36.0001 39.03C35.5901 39.03 35.2501 39.37 35.2501 39.78V44.53H34.0001C33.5901 44.53 33.2501 44.87 33.2501 45.28C33.2501 45.69 33.5901 46.03 34.0001 46.03H38.0001C38.4101 46.03 38.7501 45.69 38.7501 45.28C38.7501 44.87 38.4101 44.53 38.0001 44.53Z" fill="#4894FE"/>
<path d="M26.83 34.16C26.95 34.23 27.08 34.26 27.2 34.26C27.46 34.26 27.71 34.13 27.85 33.88L28.48 32.8L32.6 35.18C32.71 35.25 32.84 35.28 32.97 35.28C33.23 35.28 33.48 35.15 33.62 34.9C33.83 34.55 33.7 34.09 33.35 33.88L29.23 31.5L29.85 30.42C30.06 30.06 29.93 29.6 29.58 29.4C29.22 29.19 28.76 29.31 28.56 29.67L26.56 33.13C26.35 33.5 26.47 33.95 26.83 34.16Z" fill="#4894FE"/>
<path d="M45.1701 38.4C44.8101 38.19 44.3501 38.31 44.1501 38.67L43.5201 39.75L39.4001 37.38C39.0401 37.17 38.5801 37.3 38.3801 37.65C38.1701 38.01 38.3001 38.47 38.6501 38.67L42.7601 41.05L42.1401 42.13C41.9301 42.49 42.0601 42.95 42.4101 43.15C42.5301 43.22 42.6601 43.25 42.7801 43.25C43.0401 43.25 43.2901 43.12 43.4301 42.87L45.4301 39.41C45.6501 39.06 45.5301 38.61 45.1701 38.4Z" fill="#4894FE"/>
<path d="M42.7699 31.5L38.6499 33.88C38.2899 34.09 38.1699 34.55 38.3799 34.9C38.5199 35.14 38.7699 35.28 39.0299 35.28C39.1599 35.28 39.2899 35.25 39.3999 35.18L43.5099 32.8L44.1399 33.88C44.2799 34.12 44.5299 34.26 44.7899 34.26C44.9199 34.26 45.0499 34.23 45.1599 34.16C45.5199 33.95 45.6399 33.49 45.4299 33.14L43.4299 29.68C43.2199 29.32 42.7599 29.2 42.4099 29.41C42.0499 29.62 41.9299 30.08 42.1399 30.43L42.7699 31.5Z" fill="#4894FE"/>
<path d="M29.23 41.06L33.34 38.68C33.7 38.47 33.82 38.01 33.61 37.66C33.4 37.3 32.94 37.18 32.59 37.39L28.48 39.77L27.85 38.69C27.64 38.33 27.18 38.21 26.83 38.42C26.47 38.63 26.35 39.09 26.56 39.44L28.56 42.9C28.7 43.14 28.95 43.28 29.21 43.28C29.34 43.28 29.47 43.25 29.58 43.18C29.94 42.97 30.06 42.51 29.85 42.16L29.23 41.06Z" fill="#4894FE"/>
<path d="M39.5001 36.28C39.5001 36.92 39.3301 37.51 39.0301 38.03C38.4201 39.08 37.2901 39.78 36.0001 39.78C34.7101 39.78 33.5801 39.08 32.9701 38.03C32.6701 37.51 32.5001 36.92 32.5001 36.28C32.5001 35.64 32.6701 35.05 32.9701 34.53C33.5801 33.48 34.7101 32.78 36.0001 32.78C37.2901 32.78 38.4201 33.48 39.0301 34.53C39.3301 35.05 39.5001 35.64 39.5001 36.28Z" fill="#4894FE"/>
<path d="M5.645 92.045C5.645 91.025 5.875 90.11 6.335 89.3C6.795 88.48 7.42 87.84 8.21 87.38C9.01 86.92 9.895 86.69 10.865 86.69C12.005 86.69 13 86.965 13.85 87.515C14.7 88.065 15.32 88.845 15.71 89.855H14.075C13.785 89.225 13.365 88.74 12.815 88.4C12.275 88.06 11.625 87.89 10.865 87.89C10.135 87.89 9.48 88.06 8.9 88.4C8.32 88.74 7.865 89.225 7.535 89.855C7.205 90.475 7.04 91.205 7.04 92.045C7.04 92.875 7.205 93.605 7.535 94.235C7.865 94.855 8.32 95.335 8.9 95.675C9.48 96.015 10.135 96.185 10.865 96.185C11.625 96.185 12.275 96.02 12.815 95.69C13.365 95.35 13.785 94.865 14.075 94.235H15.71C15.32 95.235 14.7 96.01 13.85 96.56C13 97.1 12.005 97.37 10.865 97.37C9.895 97.37 9.01 97.145 8.21 96.695C7.42 96.235 6.795 95.6 6.335 94.79C5.875 93.98 5.645 93.065 5.645 92.045ZM21.3269 97.415C20.5569 97.415 19.8569 97.24 19.2269 96.89C18.6069 96.54 18.1169 96.045 17.7569 95.405C17.4069 94.755 17.2319 94.005 17.2319 93.155C17.2319 92.315 17.4119 91.575 17.7719 90.935C18.1419 90.285 18.6419 89.79 19.2719 89.45C19.9019 89.1 20.6069 88.925 21.3869 88.925C22.1669 88.925 22.8719 89.1 23.5019 89.45C24.1319 89.79 24.6269 90.28 24.9869 90.92C25.3569 91.56 25.5419 92.305 25.5419 93.155C25.5419 94.005 25.3519 94.755 24.9719 95.405C24.6019 96.045 24.0969 96.54 23.4569 96.89C22.8169 97.24 22.1069 97.415 21.3269 97.415ZM21.3269 96.215C21.8169 96.215 22.2769 96.1 22.7069 95.87C23.1369 95.64 23.4819 95.295 23.7419 94.835C24.0119 94.375 24.1469 93.815 24.1469 93.155C24.1469 92.495 24.0169 91.935 23.7569 91.475C23.4969 91.015 23.1569 90.675 22.7369 90.455C22.3169 90.225 21.8619 90.11 21.3719 90.11C20.8719 90.11 20.4119 90.225 19.9919 90.455C19.5819 90.675 19.2519 91.015 19.0019 91.475C18.7519 91.935 18.6269 92.495 18.6269 93.155C18.6269 93.825 18.7469 94.39 18.9869 94.85C19.2369 95.31 19.5669 95.655 19.9769 95.885C20.3869 96.105 20.8369 96.215 21.3269 96.215ZM30.3966 96.02L32.9466 89.06H34.4016L31.1766 97.28H29.5866L26.3616 89.06H27.8316L30.3966 96.02ZM36.4498 87.725C36.1898 87.725 35.9698 87.635 35.7898 87.455C35.6098 87.275 35.5198 87.055 35.5198 86.795C35.5198 86.535 35.6098 86.315 35.7898 86.135C35.9698 85.955 36.1898 85.865 36.4498 85.865C36.6998 85.865 36.9098 85.955 37.0798 86.135C37.2598 86.315 37.3498 86.535 37.3498 86.795C37.3498 87.055 37.2598 87.275 37.0798 87.455C36.9098 87.635 36.6998 87.725 36.4498 87.725ZM37.1098 89.06V97.28H35.7448V89.06H37.1098ZM38.9263 93.14C38.9263 92.3 39.0963 91.565 39.4363 90.935C39.7763 90.295 40.2413 89.8 40.8313 89.45C41.4313 89.1 42.1013 88.925 42.8413 88.925C43.4813 88.925 44.0763 89.075 44.6263 89.375C45.1763 89.665 45.5963 90.05 45.8863 90.53V86.18H47.2663V97.28H45.8863V95.735C45.6163 96.225 45.2163 96.63 44.6863 96.95C44.1563 97.26 43.5363 97.415 42.8263 97.415C42.0963 97.415 41.4313 97.235 40.8313 96.875C40.2413 96.515 39.7763 96.01 39.4363 95.36C39.0963 94.71 38.9263 93.97 38.9263 93.14ZM45.8863 93.155C45.8863 92.535 45.7613 91.995 45.5113 91.535C45.2613 91.075 44.9213 90.725 44.4913 90.485C44.0713 90.235 43.6063 90.11 43.0963 90.11C42.5863 90.11 42.1213 90.23 41.7013 90.47C41.2813 90.71 40.9463 91.06 40.6963 91.52C40.4463 91.98 40.3213 92.52 40.3213 93.14C40.3213 93.77 40.4463 94.32 40.6963 94.79C40.9463 95.25 41.2813 95.605 41.7013 95.855C42.1213 96.095 42.5863 96.215 43.0963 96.215C43.6063 96.215 44.0713 96.095 44.4913 95.855C44.9213 95.605 45.2613 95.25 45.5113 94.79C45.7613 94.32 45.8863 93.775 45.8863 93.155ZM52.987 87.68V86.435H55.807V97.28H54.427V87.68H52.987ZM59.9067 94.37C60.0067 94.94 60.2367 95.38 60.5967 95.69C60.9667 96 61.4617 96.155 62.0817 96.155C62.9117 96.155 63.5217 95.83 63.9117 95.18C64.3117 94.53 64.5017 93.435 64.4817 91.895C64.2717 92.345 63.9217 92.7 63.4317 92.96C62.9417 93.21 62.3967 93.335 61.7967 93.335C61.1267 93.335 60.5267 93.2 59.9967 92.93C59.4767 92.65 59.0667 92.245 58.7667 91.715C58.4667 91.185 58.3167 90.545 58.3167 89.795C58.3167 88.725 58.6267 87.865 59.2467 87.215C59.8667 86.555 60.7467 86.225 61.8867 86.225C63.2867 86.225 64.2667 86.68 64.8267 87.59C65.3967 88.5 65.6817 89.855 65.6817 91.655C65.6817 92.915 65.5667 93.955 65.3367 94.775C65.1167 95.595 64.7367 96.22 64.1967 96.65C63.6667 97.08 62.9367 97.295 62.0067 97.295C60.9867 97.295 60.1917 97.02 59.6217 96.47C59.0517 95.92 58.7267 95.22 58.6467 94.37H59.9067ZM62.0217 92.18C62.6917 92.18 63.2417 91.975 63.6717 91.565C64.1017 91.145 64.3167 90.58 64.3167 89.87C64.3167 89.12 64.1067 88.515 63.6867 88.055C63.2667 87.595 62.6767 87.365 61.9167 87.365C61.2167 87.365 60.6567 87.585 60.2367 88.025C59.8267 88.465 59.6217 89.045 59.6217 89.765C59.6217 90.495 59.8267 91.08 60.2367 91.52C60.6467 91.96 61.2417 92.18 62.0217 92.18Z" fill="#8696BB"/>
<rect x="85" y="0.279999" width="72" height="72" rx="36" fill="#FAFAFA"/>
<path d="M121 26.28C118.38 26.28 116.25 28.41 116.25 31.03C116.25 33.6 118.26 35.68 120.88 35.77C120.96 35.76 121.04 35.76 121.1 35.77C121.12 35.77 121.13 35.77 121.15 35.77C121.16 35.77 121.16 35.77 121.17 35.77C123.73 35.68 125.74 33.6 125.75 31.03C125.75 28.41 123.62 26.28 121 26.28Z" fill="#4894FE"/>
<path d="M126.08 38.43C123.29 36.57 118.74 36.57 115.93 38.43C114.66 39.28 113.96 40.43 113.96 41.66C113.96 42.89 114.66 44.03 115.92 44.87C117.32 45.81 119.16 46.28 121 46.28C122.84 46.28 124.68 45.81 126.08 44.87C127.34 44.02 128.04 42.88 128.04 41.64C128.03 40.41 127.34 39.27 126.08 38.43ZM123 42.41H121.75V43.66C121.75 44.07 121.41 44.41 121 44.41C120.59 44.41 120.25 44.07 120.25 43.66V42.41H119C118.59 42.41 118.25 42.07 118.25 41.66C118.25 41.25 118.59 40.91 119 40.91H120.25V39.66C120.25 39.25 120.59 38.91 121 38.91C121.41 38.91 121.75 39.25 121.75 39.66V40.91H123C123.41 40.91 123.75 41.25 123.75 41.66C123.75 42.07 123.41 42.41 123 42.41Z" fill="#4894FE"/>
<path d="M100.41 86.825C101.55 86.825 102.535 87.04 103.365 87.47C104.205 87.89 104.845 88.495 105.285 89.285C105.735 90.075 105.96 91.005 105.96 92.075C105.96 93.145 105.735 94.075 105.285 94.865C104.845 95.645 104.205 96.245 103.365 96.665C102.535 97.075 101.55 97.28 100.41 97.28H97.155V86.825H100.41ZM100.41 96.155C101.76 96.155 102.79 95.8 103.5 95.09C104.21 94.37 104.565 93.365 104.565 92.075C104.565 90.775 104.205 89.76 103.485 89.03C102.775 88.3 101.75 87.935 100.41 87.935H98.52V96.155H100.41ZM111.345 97.415C110.575 97.415 109.875 97.24 109.245 96.89C108.625 96.54 108.135 96.045 107.775 95.405C107.425 94.755 107.25 94.005 107.25 93.155C107.25 92.315 107.43 91.575 107.79 90.935C108.16 90.285 108.66 89.79 109.29 89.45C109.92 89.1 110.625 88.925 111.405 88.925C112.185 88.925 112.89 89.1 113.52 89.45C114.15 89.79 114.645 90.28 115.005 90.92C115.375 91.56 115.56 92.305 115.56 93.155C115.56 94.005 115.37 94.755 114.99 95.405C114.62 96.045 114.115 96.54 113.475 96.89C112.835 97.24 112.125 97.415 111.345 97.415ZM111.345 96.215C111.835 96.215 112.295 96.1 112.725 95.87C113.155 95.64 113.5 95.295 113.76 94.835C114.03 94.375 114.165 93.815 114.165 93.155C114.165 92.495 114.035 91.935 113.775 91.475C113.515 91.015 113.175 90.675 112.755 90.455C112.335 90.225 111.88 90.11 111.39 90.11C110.89 90.11 110.43 90.225 110.01 90.455C109.6 90.675 109.27 91.015 109.02 91.475C108.77 91.935 108.645 92.495 108.645 93.155C108.645 93.825 108.765 94.39 109.005 94.85C109.255 95.31 109.585 95.655 109.995 95.885C110.405 96.105 110.855 96.215 111.345 96.215ZM116.845 93.155C116.845 92.305 117.015 91.565 117.355 90.935C117.695 90.295 118.165 89.8 118.765 89.45C119.375 89.1 120.07 88.925 120.85 88.925C121.86 88.925 122.69 89.17 123.34 89.66C124 90.15 124.435 90.83 124.645 91.7H123.175C123.035 91.2 122.76 90.805 122.35 90.515C121.95 90.225 121.45 90.08 120.85 90.08C120.07 90.08 119.44 90.35 118.96 90.89C118.48 91.42 118.24 92.175 118.24 93.155C118.24 94.145 118.48 94.91 118.96 95.45C119.44 95.99 120.07 96.26 120.85 96.26C121.45 96.26 121.95 96.12 122.35 95.84C122.75 95.56 123.025 95.16 123.175 94.64H124.645C124.425 95.48 123.985 96.155 123.325 96.665C122.665 97.165 121.84 97.415 120.85 97.415C120.07 97.415 119.375 97.24 118.765 96.89C118.165 96.54 117.695 96.045 117.355 95.405C117.015 94.765 116.845 94.015 116.845 93.155ZM128.132 90.185V95.03C128.132 95.43 128.217 95.715 128.387 95.885C128.557 96.045 128.852 96.125 129.272 96.125H130.277V97.28H129.047C128.287 97.28 127.717 97.105 127.337 96.755C126.957 96.405 126.767 95.83 126.767 95.03V90.185H125.702V89.06H126.767V86.99H128.132V89.06H130.277V90.185H128.132ZM135.515 97.415C134.745 97.415 134.045 97.24 133.415 96.89C132.795 96.54 132.305 96.045 131.945 95.405C131.595 94.755 131.42 94.005 131.42 93.155C131.42 92.315 131.6 91.575 131.96 90.935C132.33 90.285 132.83 89.79 133.46 89.45C134.09 89.1 134.795 88.925 135.575 88.925C136.355 88.925 137.06 89.1 137.69 89.45C138.32 89.79 138.815 90.28 139.175 90.92C139.545 91.56 139.73 92.305 139.73 93.155C139.73 94.005 139.54 94.755 139.16 95.405C138.79 96.045 138.285 96.54 137.645 96.89C137.005 97.24 136.295 97.415 135.515 97.415ZM135.515 96.215C136.005 96.215 136.465 96.1 136.895 95.87C137.325 95.64 137.67 95.295 137.93 94.835C138.2 94.375 138.335 93.815 138.335 93.155C138.335 92.495 138.205 91.935 137.945 91.475C137.685 91.015 137.345 90.675 136.925 90.455C136.505 90.225 136.05 90.11 135.56 90.11C135.06 90.11 134.6 90.225 134.18 90.455C133.77 90.675 133.44 91.015 133.19 91.475C132.94 91.935 132.815 92.495 132.815 93.155C132.815 93.825 132.935 94.39 133.175 94.85C133.425 95.31 133.755 95.655 134.165 95.885C134.575 96.105 135.025 96.215 135.515 96.215ZM142.89 90.395C143.13 89.925 143.47 89.56 143.91 89.3C144.36 89.04 144.905 88.91 145.545 88.91V90.32H145.185C143.655 90.32 142.89 91.15 142.89 92.81V97.28H141.525V89.06H142.89V90.395Z" fill="#8696BB"/>
<rect x="170" y="0.279999" width="72" height="72" rx="36" fill="#FAFAFA"/>
<path d="M202.64 39.6355C202.35 39.3456 202.35 38.8648 202.64 38.5749L204.762 36.4536L202.11 33.8019C201.721 33.413 201.085 33.413 200.696 33.8019L199.119 35.3788C196.891 37.6061 196.778 41.368 199.083 43.5034C200.137 44.4721 201.473 44.9601 202.817 44.9601C204.224 44.953 205.631 44.4227 206.706 43.3478L208.474 41.5801C208.863 41.1912 208.863 40.5548 208.474 40.1659L205.822 37.5142L203.701 39.6355C203.411 39.9255 202.93 39.9255 202.64 39.6355Z" fill="#4894FE"/>
<path d="M209.18 27.5935C207.773 27.6006 206.366 28.1309 205.291 29.2057L203.524 30.9735C203.135 31.3624 203.135 31.9988 203.524 32.3877L206.175 35.0393L208.297 32.918C208.587 32.6281 209.067 32.6281 209.357 32.918C209.647 33.2079 209.647 33.6888 209.357 33.9787L207.236 36.1L209.888 38.7516C210.277 39.1405 210.913 39.1405 211.302 38.7516L212.879 37.1748C215.106 34.9474 215.219 31.1856 212.907 29.0572C211.86 28.0814 210.517 27.6006 209.18 27.5935Z" fill="#4894FE"/>
<path d="M206.175 35.0393L204.761 36.4535L205.822 37.5142L207.236 36.1L206.175 35.0393Z" fill="#4894FE"/>
<path d="M183.76 86.9V97.28H182.395V89.54L178.945 97.28H177.985L174.52 89.525V97.28H173.155V86.9H174.625L178.465 95.48L182.305 86.9H183.76ZM193.575 92.855C193.575 93.115 193.56 93.39 193.53 93.68H186.96C187.01 94.49 187.285 95.125 187.785 95.585C188.295 96.035 188.91 96.26 189.63 96.26C190.22 96.26 190.71 96.125 191.1 95.855C191.5 95.575 191.78 95.205 191.94 94.745H193.41C193.19 95.535 192.75 96.18 192.09 96.68C191.43 97.17 190.61 97.415 189.63 97.415C188.85 97.415 188.15 97.24 187.53 96.89C186.92 96.54 186.44 96.045 186.09 95.405C185.74 94.755 185.565 94.005 185.565 93.155C185.565 92.305 185.735 91.56 186.075 90.92C186.415 90.28 186.89 89.79 187.5 89.45C188.12 89.1 188.83 88.925 189.63 88.925C190.41 88.925 191.1 89.095 191.7 89.435C192.3 89.775 192.76 90.245 193.08 90.845C193.41 91.435 193.575 92.105 193.575 92.855ZM192.165 92.57C192.165 92.05 192.05 91.605 191.82 91.235C191.59 90.855 191.275 90.57 190.875 90.38C190.485 90.18 190.05 90.08 189.57 90.08C188.88 90.08 188.29 90.3 187.8 90.74C187.32 91.18 187.045 91.79 186.975 92.57H192.165ZM194.867 93.14C194.867 92.3 195.037 91.565 195.377 90.935C195.717 90.295 196.182 89.8 196.772 89.45C197.372 89.1 198.042 88.925 198.782 88.925C199.422 88.925 200.017 89.075 200.567 89.375C201.117 89.665 201.537 90.05 201.827 90.53V86.18H203.207V97.28H201.827V95.735C201.557 96.225 201.157 96.63 200.627 96.95C200.097 97.26 199.477 97.415 198.767 97.415C198.037 97.415 197.372 97.235 196.772 96.875C196.182 96.515 195.717 96.01 195.377 95.36C195.037 94.71 194.867 93.97 194.867 93.14ZM201.827 93.155C201.827 92.535 201.702 91.995 201.452 91.535C201.202 91.075 200.862 90.725 200.432 90.485C200.012 90.235 199.547 90.11 199.037 90.11C198.527 90.11 198.062 90.23 197.642 90.47C197.222 90.71 196.887 91.06 196.637 91.52C196.387 91.98 196.262 92.52 196.262 93.14C196.262 93.77 196.387 94.32 196.637 94.79C196.887 95.25 197.222 95.605 197.642 95.855C198.062 96.095 198.527 96.215 199.037 96.215C199.547 96.215 200.012 96.095 200.432 95.855C200.862 95.605 201.202 95.25 201.452 94.79C201.702 94.32 201.827 93.775 201.827 93.155ZM206.218 87.725C205.958 87.725 205.738 87.635 205.558 87.455C205.378 87.275 205.288 87.055 205.288 86.795C205.288 86.535 205.378 86.315 205.558 86.135C205.738 85.955 205.958 85.865 206.218 85.865C206.468 85.865 206.678 85.955 206.848 86.135C207.028 86.315 207.118 86.535 207.118 86.795C207.118 87.055 207.028 87.275 206.848 87.455C206.678 87.635 206.468 87.725 206.218 87.725ZM206.878 89.06V97.28H205.513V89.06H206.878ZM208.695 93.155C208.695 92.305 208.865 91.565 209.205 90.935C209.545 90.295 210.015 89.8 210.615 89.45C211.225 89.1 211.92 88.925 212.7 88.925C213.71 88.925 214.54 89.17 215.19 89.66C215.85 90.15 216.285 90.83 216.495 91.7H215.025C214.885 91.2 214.61 90.805 214.2 90.515C213.8 90.225 213.3 90.08 212.7 90.08C211.92 90.08 211.29 90.35 210.81 90.89C210.33 91.42 210.09 92.175 210.09 93.155C210.09 94.145 210.33 94.91 210.81 95.45C211.29 95.99 211.92 96.26 212.7 96.26C213.3 96.26 213.8 96.12 214.2 95.84C214.6 95.56 214.875 95.16 215.025 94.64H216.495C216.275 95.48 215.835 96.155 215.175 96.665C214.515 97.165 213.69 97.415 212.7 97.415C211.92 97.415 211.225 97.24 210.615 96.89C210.015 96.54 209.545 96.045 209.205 95.405C208.865 94.765 208.695 94.015 208.695 93.155ZM219.021 87.725C218.761 87.725 218.541 87.635 218.361 87.455C218.181 87.275 218.091 87.055 218.091 86.795C218.091 86.535 218.181 86.315 218.361 86.135C218.541 85.955 218.761 85.865 219.021 85.865C219.271 85.865 219.481 85.955 219.651 86.135C219.831 86.315 219.921 86.535 219.921 86.795C219.921 87.055 219.831 87.275 219.651 87.455C219.481 87.635 219.271 87.725 219.021 87.725ZM219.681 89.06V97.28H218.316V89.06H219.681ZM226.013 88.91C227.013 88.91 227.823 89.215 228.443 89.825C229.063 90.425 229.373 91.295 229.373 92.435V97.28H228.023V92.63C228.023 91.81 227.818 91.185 227.408 90.755C226.998 90.315 226.438 90.095 225.728 90.095C225.008 90.095 224.433 90.32 224.003 90.77C223.583 91.22 223.373 91.875 223.373 92.735V97.28H222.008V89.06H223.373V90.23C223.643 89.81 224.008 89.485 224.468 89.255C224.938 89.025 225.453 88.91 226.013 88.91ZM239.102 92.855C239.102 93.115 239.087 93.39 239.057 93.68H232.487C232.537 94.49 232.812 95.125 233.312 95.585C233.822 96.035 234.437 96.26 235.157 96.26C235.747 96.26 236.237 96.125 236.627 95.855C237.027 95.575 237.307 95.205 237.467 94.745H238.937C238.717 95.535 238.277 96.18 237.617 96.68C236.957 97.17 236.137 97.415 235.157 97.415C234.377 97.415 233.677 97.24 233.057 96.89C232.447 96.54 231.967 96.045 231.617 95.405C231.267 94.755 231.092 94.005 231.092 93.155C231.092 92.305 231.262 91.56 231.602 90.92C231.942 90.28 232.417 89.79 233.027 89.45C233.647 89.1 234.357 88.925 235.157 88.925C235.937 88.925 236.627 89.095 237.227 89.435C237.827 89.775 238.287 90.245 238.607 90.845C238.937 91.435 239.102 92.105 239.102 92.855ZM237.692 92.57C237.692 92.05 237.577 91.605 237.347 91.235C237.117 90.855 236.802 90.57 236.402 90.38C236.012 90.18 235.577 90.08 235.097 90.08C234.407 90.08 233.817 90.3 233.327 90.74C232.847 91.18 232.572 91.79 232.502 92.57H237.692Z" fill="#8696BB"/>
<rect x="255" y="0.279999" width="72" height="72" rx="36" fill="#FAFAFA"/>
<path d="M301 45.53H281C280.59 45.53 280.25 45.87 280.25 46.28C280.25 46.69 280.59 47.03 281 47.03H301C301.41 47.03 301.75 46.69 301.75 46.28C301.75 45.87 301.41 45.53 301 45.53Z" fill="#4894FE"/>
<path d="M296 26.28H286C283 26.28 282 28.07 282 30.28V46.28H288V40.22C288 39.7 288.42 39.28 288.94 39.28H293.07C293.58 39.28 294.01 39.7 294.01 40.22V46.28H300.01V30.28C300 28.07 299 26.28 296 26.28ZM293.5 33.53H291.75V35.28C291.75 35.69 291.41 36.03 291 36.03C290.59 36.03 290.25 35.69 290.25 35.28V33.53H288.5C288.09 33.53 287.75 33.19 287.75 32.78C287.75 32.37 288.09 32.03 288.5 32.03H290.25V30.28C290.25 29.87 290.59 29.53 291 29.53C291.41 29.53 291.75 29.87 291.75 30.28V32.03H293.5C293.91 32.03 294.25 32.37 294.25 32.78C294.25 33.19 293.91 33.53 293.5 33.53Z" fill="#4894FE"/>
<path d="M269.71 86.825V97.28H268.345V92.54H263.02V97.28H261.655V86.825H263.02V91.415H268.345V86.825H269.71ZM275.626 97.415C274.856 97.415 274.156 97.24 273.526 96.89C272.906 96.54 272.416 96.045 272.056 95.405C271.706 94.755 271.531 94.005 271.531 93.155C271.531 92.315 271.711 91.575 272.071 90.935C272.441 90.285 272.941 89.79 273.571 89.45C274.201 89.1 274.906 88.925 275.686 88.925C276.466 88.925 277.171 89.1 277.801 89.45C278.431 89.79 278.926 90.28 279.286 90.92C279.656 91.56 279.841 92.305 279.841 93.155C279.841 94.005 279.651 94.755 279.271 95.405C278.901 96.045 278.396 96.54 277.756 96.89C277.116 97.24 276.406 97.415 275.626 97.415ZM275.626 96.215C276.116 96.215 276.576 96.1 277.006 95.87C277.436 95.64 277.781 95.295 278.041 94.835C278.311 94.375 278.446 93.815 278.446 93.155C278.446 92.495 278.316 91.935 278.056 91.475C277.796 91.015 277.456 90.675 277.036 90.455C276.616 90.225 276.161 90.11 275.671 90.11C275.171 90.11 274.711 90.225 274.291 90.455C273.881 90.675 273.551 91.015 273.301 91.475C273.051 91.935 272.926 92.495 272.926 93.155C272.926 93.825 273.046 94.39 273.286 94.85C273.536 95.31 273.866 95.655 274.276 95.885C274.686 96.105 275.136 96.215 275.626 96.215ZM284.545 97.415C283.915 97.415 283.35 97.31 282.85 97.1C282.35 96.88 281.955 96.58 281.665 96.2C281.375 95.81 281.215 95.365 281.185 94.865H282.595C282.635 95.275 282.825 95.61 283.165 95.87C283.515 96.13 283.97 96.26 284.53 96.26C285.05 96.26 285.46 96.145 285.76 95.915C286.06 95.685 286.21 95.395 286.21 95.045C286.21 94.685 286.05 94.42 285.73 94.25C285.41 94.07 284.915 93.895 284.245 93.725C283.635 93.565 283.135 93.405 282.745 93.245C282.365 93.075 282.035 92.83 281.755 92.51C281.485 92.18 281.35 91.75 281.35 91.22C281.35 90.8 281.475 90.415 281.725 90.065C281.975 89.715 282.33 89.44 282.79 89.24C283.25 89.03 283.775 88.925 284.365 88.925C285.275 88.925 286.01 89.155 286.57 89.615C287.13 90.075 287.43 90.705 287.47 91.505H286.105C286.075 91.075 285.9 90.73 285.58 90.47C285.27 90.21 284.85 90.08 284.32 90.08C283.83 90.08 283.44 90.185 283.15 90.395C282.86 90.605 282.715 90.88 282.715 91.22C282.715 91.49 282.8 91.715 282.97 91.895C283.15 92.065 283.37 92.205 283.63 92.315C283.9 92.415 284.27 92.53 284.74 92.66C285.33 92.82 285.81 92.98 286.18 93.14C286.55 93.29 286.865 93.52 287.125 93.83C287.395 94.14 287.535 94.545 287.545 95.045C287.545 95.495 287.42 95.9 287.17 96.26C286.92 96.62 286.565 96.905 286.105 97.115C285.655 97.315 285.135 97.415 284.545 97.415ZM290.837 90.575C291.107 90.105 291.507 89.715 292.037 89.405C292.577 89.085 293.202 88.925 293.912 88.925C294.642 88.925 295.302 89.1 295.892 89.45C296.492 89.8 296.962 90.295 297.302 90.935C297.642 91.565 297.812 92.3 297.812 93.14C297.812 93.97 297.642 94.71 297.302 95.36C296.962 96.01 296.492 96.515 295.892 96.875C295.302 97.235 294.642 97.415 293.912 97.415C293.212 97.415 292.592 97.26 292.052 96.95C291.522 96.63 291.117 96.235 290.837 95.765V101.18H289.472V89.06H290.837V90.575ZM296.417 93.14C296.417 92.52 296.292 91.98 296.042 91.52C295.792 91.06 295.452 90.71 295.022 90.47C294.602 90.23 294.137 90.11 293.627 90.11C293.127 90.11 292.662 90.235 292.232 90.485C291.812 90.725 291.472 91.08 291.212 91.55C290.962 92.01 290.837 92.545 290.837 93.155C290.837 93.775 290.962 94.32 291.212 94.79C291.472 95.25 291.812 95.605 292.232 95.855C292.662 96.095 293.127 96.215 293.627 96.215C294.137 96.215 294.602 96.095 295.022 95.855C295.452 95.605 295.792 95.25 296.042 94.79C296.292 94.32 296.417 93.77 296.417 93.14ZM300.314 87.725C300.054 87.725 299.834 87.635 299.654 87.455C299.474 87.275 299.384 87.055 299.384 86.795C299.384 86.535 299.474 86.315 299.654 86.135C299.834 85.955 300.054 85.865 300.314 85.865C300.564 85.865 300.774 85.955 300.944 86.135C301.124 86.315 301.214 86.535 301.214 86.795C301.214 87.055 301.124 87.275 300.944 87.455C300.774 87.635 300.564 87.725 300.314 87.725ZM300.974 89.06V97.28H299.609V89.06H300.974ZM304.966 90.185V95.03C304.966 95.43 305.051 95.715 305.221 95.885C305.391 96.045 305.686 96.125 306.106 96.125H307.111V97.28H305.881C305.121 97.28 304.551 97.105 304.171 96.755C303.791 96.405 303.601 95.83 303.601 95.03V90.185H302.536V89.06H303.601V86.99H304.966V89.06H307.111V90.185H304.966ZM308.254 93.14C308.254 92.3 308.424 91.565 308.764 90.935C309.104 90.295 309.569 89.8 310.159 89.45C310.759 89.1 311.424 88.925 312.154 88.925C312.874 88.925 313.499 89.08 314.029 89.39C314.559 89.7 314.954 90.09 315.214 90.56V89.06H316.594V97.28H315.214V95.75C314.944 96.23 314.539 96.63 313.999 96.95C313.469 97.26 312.849 97.415 312.139 97.415C311.409 97.415 310.749 97.235 310.159 96.875C309.569 96.515 309.104 96.01 308.764 95.36C308.424 94.71 308.254 93.97 308.254 93.14ZM315.214 93.155C315.214 92.535 315.089 91.995 314.839 91.535C314.589 91.075 314.249 90.725 313.819 90.485C313.399 90.235 312.934 90.11 312.424 90.11C311.914 90.11 311.449 90.23 311.029 90.47C310.609 90.71 310.274 91.06 310.024 91.52C309.774 91.98 309.649 92.52 309.649 93.14C309.649 93.77 309.774 94.32 310.024 94.79C310.274 95.25 310.609 95.605 311.029 95.855C311.449 96.095 311.914 96.215 312.424 96.215C312.934 96.215 313.399 96.095 313.819 95.855C314.249 95.605 314.589 95.25 314.839 94.79C315.089 94.32 315.214 93.775 315.214 93.155ZM320.266 86.18V97.28H318.901V86.18H320.266Z" fill="#8696BB"/>
</svg>
