<svg width="95" height="48" viewBox="0 0 95 48" fill="none" xmlns="http://www.w3.org/2000/svg">
<rect width="95" height="48" rx="12" fill="#63B4FF" fill-opacity="0.1"/>
<path d="M32.83 20.01L26.28 14.77C25 13.75 23 13.74 21.73 14.76L15.18 20.01C14.24 20.76 13.67 22.26 13.87 23.44L15.13 30.98C15.42 32.67 16.99 34 18.7 34H29.3C30.99 34 32.59 32.64 32.88 30.97L34.14 23.43C34.32 22.26 33.75 20.76 32.83 20.01ZM24.75 30C24.75 30.41 24.41 30.75 24 30.75C23.59 30.75 23.25 30.41 23.25 30V27C23.25 26.59 23.59 26.25 24 26.25C24.41 26.25 24.75 26.59 24.75 27V30Z" fill="#63B4FF"/>
<path d="M52.778 18.56C53.0487 18.56 53.2633 18.644 53.422 18.812C53.5807 18.9707 53.66 19.1853 53.66 19.456V27.674C53.66 27.9447 53.576 28.164 53.408 28.332C53.2493 28.5 53.0393 28.584 52.778 28.584C52.5073 28.584 52.2927 28.5 52.134 28.332C51.9753 28.164 51.896 27.9447 51.896 27.674V24.216H46.842V27.674C46.842 27.9447 46.758 28.164 46.59 28.332C46.4313 28.5 46.2167 28.584 45.946 28.584C45.6847 28.584 45.47 28.5 45.302 28.332C45.1433 28.164 45.064 27.9447 45.064 27.674V19.456C45.064 19.1853 45.1433 18.9707 45.302 18.812C45.4607 18.644 45.6753 18.56 45.946 18.56C46.2167 18.56 46.4313 18.644 46.59 18.812C46.758 18.9707 46.842 19.1853 46.842 19.456V22.76H51.896V19.456C51.896 19.1853 51.9753 18.9707 52.134 18.812C52.2927 18.644 52.5073 18.56 52.778 18.56ZM58.7508 28.612C58.0508 28.612 57.4348 28.4673 56.9028 28.178C56.3801 27.8887 55.9741 27.4733 55.6848 26.932C55.3954 26.3907 55.2508 25.7607 55.2508 25.042C55.2508 24.3233 55.3954 23.698 55.6848 23.166C55.9741 22.6247 56.3801 22.2093 56.9028 21.92C57.4348 21.6307 58.0508 21.486 58.7508 21.486C59.4508 21.486 60.0621 21.6307 60.5848 21.92C61.1168 22.2093 61.5228 22.6247 61.8028 23.166C62.0921 23.698 62.2368 24.3233 62.2368 25.042C62.2368 25.7607 62.0921 26.3907 61.8028 26.932C61.5228 27.4733 61.1168 27.8887 60.5848 28.178C60.0621 28.4673 59.4508 28.612 58.7508 28.612ZM58.7368 27.254C59.3061 27.254 59.7401 27.0673 60.0388 26.694C60.3374 26.3207 60.4868 25.77 60.4868 25.042C60.4868 24.3233 60.3374 23.7773 60.0388 23.404C59.7401 23.0213 59.3108 22.83 58.7508 22.83C58.1908 22.83 57.7568 23.0213 57.4488 23.404C57.1501 23.7773 57.0008 24.3233 57.0008 25.042C57.0008 25.77 57.1501 26.3207 57.4488 26.694C57.7474 27.0673 58.1768 27.254 58.7368 27.254ZM71.8155 21.486C72.5622 21.486 73.1315 21.71 73.5235 22.158C73.9248 22.5967 74.1255 23.3107 74.1255 24.3V27.744C74.1255 28.0147 74.0415 28.2247 73.8735 28.374C73.7148 28.514 73.5048 28.584 73.2435 28.584C72.9915 28.584 72.7815 28.514 72.6135 28.374C72.4548 28.2247 72.3755 28.0147 72.3755 27.744V24.3C72.3755 23.7867 72.2822 23.4227 72.0955 23.208C71.9182 22.984 71.6428 22.872 71.2695 22.872C70.8122 22.872 70.4482 23.0307 70.1775 23.348C69.9068 23.656 69.7715 24.0807 69.7715 24.622V27.744C69.7715 28.0147 69.6875 28.2247 69.5195 28.374C69.3608 28.514 69.1555 28.584 68.9035 28.584C68.6515 28.584 68.4415 28.514 68.2735 28.374C68.1055 28.2247 68.0215 28.0147 68.0215 27.744V24.3C68.0215 23.7867 67.9282 23.4227 67.7415 23.208C67.5642 22.984 67.2888 22.872 66.9155 22.872C66.4582 22.872 66.0942 23.0307 65.8235 23.348C65.5622 23.656 65.4315 24.0807 65.4315 24.622V27.744C65.4315 28.0147 65.3475 28.2247 65.1795 28.374C65.0115 28.514 64.8015 28.584 64.5495 28.584C64.2975 28.584 64.0875 28.514 63.9195 28.374C63.7608 28.2247 63.6815 28.0147 63.6815 27.744V22.326C63.6815 22.0647 63.7655 21.864 63.9335 21.724C64.1015 21.584 64.3115 21.514 64.5635 21.514C64.8062 21.514 65.0022 21.584 65.1515 21.724C65.3102 21.8547 65.3895 22.046 65.3895 22.298V22.634C65.6042 22.2607 65.8888 21.976 66.2435 21.78C66.6075 21.584 67.0228 21.486 67.4895 21.486C68.5162 21.486 69.2022 21.9153 69.5475 22.774C69.7528 22.382 70.0562 22.0693 70.4575 21.836C70.8588 21.6027 71.3115 21.486 71.8155 21.486ZM81.3221 26.624C81.4808 26.624 81.6068 26.6847 81.7001 26.806C81.8028 26.9273 81.8541 27.0907 81.8541 27.296C81.8541 27.5853 81.6815 27.828 81.3361 28.024C81.0188 28.2013 80.6595 28.346 80.2581 28.458C79.8568 28.5607 79.4741 28.612 79.1101 28.612C78.0088 28.612 77.1361 28.2947 76.4921 27.66C75.8481 27.0253 75.5261 26.1573 75.5261 25.056C75.5261 24.356 75.6661 23.7353 75.9461 23.194C76.2261 22.6527 76.6181 22.2327 77.1221 21.934C77.6355 21.6353 78.2141 21.486 78.8581 21.486C79.4741 21.486 80.0108 21.6213 80.4681 21.892C80.9255 22.1627 81.2801 22.5453 81.5321 23.04C81.7841 23.5347 81.9101 24.118 81.9101 24.79C81.9101 25.1913 81.7328 25.392 81.3781 25.392H77.2481C77.3041 26.036 77.4861 26.512 77.7941 26.82C78.1021 27.1187 78.5501 27.268 79.1381 27.268C79.4368 27.268 79.6981 27.2307 79.9221 27.156C80.1555 27.0813 80.4168 26.9787 80.7061 26.848C80.9861 26.6987 81.1915 26.624 81.3221 26.624ZM78.9001 22.718C78.4241 22.718 78.0415 22.8673 77.7521 23.166C77.4721 23.4647 77.3041 23.894 77.2481 24.454H80.4121C80.3935 23.8847 80.2535 23.4553 79.9921 23.166C79.7308 22.8673 79.3668 22.718 78.9001 22.718Z" fill="#63B4FF"/>
</svg>
