<svg width="375" height="44" viewBox="0 0 375 44" fill="none" xmlns="http://www.w3.org/2000/svg">
<path opacity="0.35" d="M332.5 19.9999C332.5 18.8033 333.47 17.8333 334.667 17.8333H351.334C352.53 17.8333 353.5 18.8033 353.5 19.9999V25.9999C353.5 27.1965 352.53 28.1666 351.334 28.1666H334.667C333.47 28.1666 332.5 27.1965 332.5 25.9999V19.9999Z" stroke="#0D1B34"/>
<path opacity="0.4" d="M355 20.9999V24.9999C355.805 24.6611 356.328 23.873 356.328 22.9999C356.328 22.1268 355.805 21.3387 355 20.9999Z" fill="#0D1B34"/>
<path d="M334 20.4333C334 19.8257 334.493 19.3333 335.1 19.3333H350.9C351.508 19.3333 352 19.8257 352 20.4333V25.5666C352 26.1741 351.508 26.6666 350.9 26.6666H335.1C334.493 26.6666 334 26.1741 334 25.5666V20.4333Z" fill="#0D1B34"/>
<path fill-rule="evenodd" clip-rule="evenodd" d="M319.331 19.6079C321.547 19.608 323.678 20.4594 325.284 21.9862C325.405 22.1041 325.598 22.1026 325.717 21.9829L326.873 20.8162C326.933 20.7555 326.967 20.6733 326.966 20.5877C326.966 20.5021 326.931 20.4202 326.87 20.3602C322.655 16.3207 316.005 16.3207 311.79 20.3602C311.729 20.4202 311.695 20.502 311.694 20.5876C311.694 20.6732 311.727 20.7555 311.787 20.8162L312.944 21.9829C313.063 22.1028 313.256 22.1043 313.377 21.9862C314.983 20.4593 317.115 19.6079 319.331 19.6079ZM319.331 23.4036C320.548 23.4035 321.722 23.856 322.625 24.6732C322.747 24.7892 322.939 24.7867 323.058 24.6676L324.213 23.5009C324.274 23.4397 324.307 23.3567 324.306 23.2704C324.305 23.1842 324.27 23.1018 324.208 23.0419C321.46 20.4855 317.204 20.4855 314.456 23.0419C314.394 23.1018 314.358 23.1842 314.357 23.2705C314.357 23.3568 314.39 23.4398 314.451 23.5009L315.606 24.6676C315.725 24.7867 315.917 24.7892 316.039 24.6732C316.941 23.8566 318.114 23.4041 319.331 23.4036ZM321.644 25.9574C321.645 26.0439 321.611 26.1273 321.55 26.1879L319.552 28.2036C319.494 28.2628 319.414 28.2961 319.331 28.2961C319.247 28.2961 319.168 28.2628 319.109 28.2036L317.111 26.1879C317.05 26.1272 317.016 26.0438 317.018 25.9573C317.019 25.8708 317.057 25.7889 317.121 25.7309C318.397 24.652 320.265 24.652 321.54 25.7309C321.605 25.7889 321.642 25.8709 321.644 25.9574Z" fill="#0D1B34"/>
<path fill-rule="evenodd" clip-rule="evenodd" d="M305.667 17.6665H304.667C304.115 17.6665 303.667 18.1142 303.667 18.6665V27.3332C303.667 27.8855 304.115 28.3332 304.667 28.3332H305.667C306.219 28.3332 306.667 27.8855 306.667 27.3332V18.6665C306.667 18.1142 306.219 17.6665 305.667 17.6665ZM300 19.9998H301C301.553 19.9998 302 20.4476 302 20.9998V27.3332C302 27.8855 301.553 28.3332 301 28.3332H300C299.448 28.3332 299 27.8855 299 27.3332V20.9998C299 20.4476 299.448 19.9998 300 19.9998ZM296.334 22.3332H295.334C294.781 22.3332 294.334 22.7809 294.334 23.3332V27.3332C294.334 27.8855 294.781 28.3332 295.334 28.3332H296.334C296.886 28.3332 297.334 27.8855 297.334 27.3332V23.3332C297.334 22.7809 296.886 22.3332 296.334 22.3332ZM291.667 24.3332H290.667C290.115 24.3332 289.667 24.7809 289.667 25.3332V27.3332C289.667 27.8855 290.115 28.3332 290.667 28.3332H291.667C292.219 28.3332 292.667 27.8855 292.667 27.3332V25.3332C292.667 24.7809 292.219 24.3332 291.667 24.3332Z" fill="#0D1B34"/>
<path d="M40.4341 28.2563C39.4673 28.2563 38.6445 27.9951 37.9658 27.4727C37.2871 26.9453 36.8696 26.2471 36.7134 25.3779H38.5957C38.7178 25.7783 38.9424 26.0957 39.2695 26.3301C39.6016 26.5596 39.9946 26.6743 40.4487 26.6743C41.2202 26.6743 41.8232 26.335 42.2578 25.6562C42.6924 24.9727 42.9097 24.0254 42.9097 22.8145H42.8438H42.8071H42.7852C42.5361 23.3174 42.1724 23.708 41.6938 23.9863C41.2153 24.2598 40.666 24.3965 40.0459 24.3965C39.04 24.3965 38.2075 24.0645 37.5483 23.4004C36.894 22.7363 36.5669 21.8965 36.5669 20.8809C36.5669 19.7969 36.9331 18.9082 37.6655 18.2148C38.4028 17.5166 39.3452 17.1675 40.4927 17.1675C41.2642 17.1675 41.9478 17.3457 42.5435 17.7021C43.1392 18.0586 43.6152 18.5762 43.9717 19.2549C44.4697 20.1387 44.7188 21.252 44.7188 22.5947C44.7188 24.3721 44.3403 25.7612 43.5835 26.7622C42.8267 27.7583 41.7769 28.2563 40.4341 28.2563ZM39.0059 22.3164C39.3965 22.7021 39.8945 22.895 40.5 22.895C41.1055 22.895 41.606 22.7021 42.0015 22.3164C42.397 21.9307 42.5947 21.4424 42.5947 20.8516C42.5947 20.2559 42.3945 19.7554 41.9941 19.3501C41.5938 18.9448 41.0981 18.7422 40.5073 18.7422C39.9165 18.7422 39.4209 18.9424 39.0205 19.3428C38.6201 19.7383 38.4199 20.2314 38.4199 20.8223C38.4199 21.4277 38.6152 21.9258 39.0059 22.3164ZM47.5366 26.8794C47.1948 26.8794 46.9141 26.7695 46.6943 26.5498C46.4746 26.3301 46.3647 26.0542 46.3647 25.7222C46.3647 25.3853 46.4746 25.1094 46.6943 24.8945C46.9141 24.6748 47.1948 24.5649 47.5366 24.5649C47.8833 24.5649 48.1641 24.6748 48.3789 24.8945C48.5986 25.1094 48.7085 25.3853 48.7085 25.7222C48.7085 26.0542 48.5986 26.3301 48.3789 26.5498C48.1641 26.7695 47.8833 26.8794 47.5366 26.8794ZM47.5366 21.3862C47.1948 21.3862 46.9141 21.2788 46.6943 21.064C46.4746 20.8442 46.3647 20.5684 46.3647 20.2363C46.3647 19.8994 46.4746 19.6235 46.6943 19.4087C46.9141 19.189 47.1948 19.0791 47.5366 19.0791C47.8833 19.0791 48.1641 19.189 48.3789 19.4087C48.5986 19.6235 48.7085 19.8994 48.7085 20.2363C48.7085 20.5684 48.5986 20.8442 48.3789 21.064C48.1641 21.2788 47.8833 21.3862 47.5366 21.3862ZM55.5107 28V26.0298H50.3472V24.3452C51.2065 22.7632 52.6421 20.4585 54.6538 17.4312H57.3198V24.4331H58.748V26.0298H57.3198V28H55.5107ZM52.0977 24.3672V24.4771H55.54V18.9692H55.4375C54.2949 20.6587 53.1816 22.458 52.0977 24.3672ZM62.5767 28V19.3354H62.4521L59.8228 21.1812V19.3647L62.584 17.4312H64.4663V28H62.5767Z" fill="black"/>
</svg>
