<svg width="295" height="21" viewBox="0 0 295 21" fill="none" xmlns="http://www.w3.org/2000/svg">
<path d="M18.3333 10.28C18.3333 14.88 14.6 18.6133 9.99996 18.6133C5.39996 18.6133 1.66663 14.88 1.66663 10.28C1.66663 5.68 5.39996 1.94667 9.99996 1.94667C14.6 1.94667 18.3333 5.68 18.3333 10.28Z" stroke="#FEB052" stroke-width="1.5" stroke-linecap="round" stroke-linejoin="round"/>
<path d="M13.0917 12.93L10.5083 11.3883C10.0583 11.1217 9.69165 10.48 9.69165 9.955V6.53833" stroke="#FEB052" stroke-width="1.5" stroke-linecap="round" stroke-linejoin="round"/>
<path d="M26.48 12.348V11.52L30.692 5.688H32V11.4H33.2V12.348H32V14.28H30.92V12.348H26.48ZM30.968 6.828L27.74 11.4H30.968V6.828ZM35.5989 12.768L34.2549 15.996H33.5229L34.3989 12.768H35.5989ZM38.2538 9.768C37.8058 9.592 37.4618 9.336 37.2218 9C36.9818 8.664 36.8618 8.256 36.8618 7.776C36.8618 7.344 36.9698 6.956 37.1858 6.612C37.4018 6.26 37.7218 5.984 38.1458 5.784C38.5778 5.576 39.0978 5.472 39.7058 5.472C40.3138 5.472 40.8298 5.576 41.2538 5.784C41.6858 5.984 42.0098 6.26 42.2258 6.612C42.4498 6.956 42.5618 7.344 42.5618 7.776C42.5618 8.24 42.4378 8.648 42.1898 9C41.9418 9.344 41.6018 9.6 41.1698 9.768C41.6658 9.92 42.0578 10.188 42.3458 10.572C42.6418 10.948 42.7898 11.404 42.7898 11.94C42.7898 12.46 42.6618 12.916 42.4058 13.308C42.1498 13.692 41.7858 13.992 41.3138 14.208C40.8498 14.416 40.3138 14.52 39.7058 14.52C39.0978 14.52 38.5618 14.416 38.0978 14.208C37.6418 13.992 37.2858 13.692 37.0298 13.308C36.7738 12.916 36.6458 12.46 36.6458 11.94C36.6458 11.404 36.7898 10.944 37.0778 10.56C37.3658 10.176 37.7578 9.912 38.2538 9.768ZM41.5058 7.908C41.5058 7.42 41.3458 7.044 41.0258 6.78C40.7058 6.516 40.2658 6.384 39.7058 6.384C39.1538 6.384 38.7178 6.516 38.3978 6.78C38.0778 7.044 37.9178 7.424 37.9178 7.92C37.9178 8.368 38.0818 8.728 38.4098 9C38.7458 9.272 39.1778 9.408 39.7058 9.408C40.2418 9.408 40.6738 9.272 41.0018 9C41.3378 8.72 41.5058 8.356 41.5058 7.908ZM39.7058 10.248C39.1138 10.248 38.6298 10.388 38.2538 10.668C37.8778 10.94 37.6898 11.352 37.6898 11.904C37.6898 12.416 37.8698 12.828 38.2298 13.14C38.5978 13.452 39.0898 13.608 39.7058 13.608C40.3218 13.608 40.8098 13.452 41.1698 13.14C41.5298 12.828 41.7098 12.416 41.7098 11.904C41.7098 11.368 41.5258 10.96 41.1578 10.68C40.7898 10.392 40.3058 10.248 39.7058 10.248ZM50.4273 16.512C49.6593 15.76 49.0593 14.804 48.6273 13.644C48.2033 12.484 47.9913 11.232 47.9913 9.888C47.9913 8.512 48.2153 7.228 48.6633 6.036C49.1193 4.836 49.7673 3.848 50.6073 3.072H51.7473V3.18C50.8513 4.02 50.1753 5.032 49.7193 6.216C49.2713 7.392 49.0473 8.616 49.0473 9.888C49.0473 11.128 49.2593 12.312 49.6833 13.44C50.1153 14.568 50.7433 15.556 51.5673 16.404V16.512H50.4273ZM52.6005 6.6V5.604H54.8565V14.28H53.7525V6.6H52.6005ZM56.6003 13.404C57.6163 12.588 58.4123 11.92 58.9883 11.4C59.5643 10.872 60.0483 10.324 60.4403 9.756C60.8403 9.18 61.0403 8.616 61.0403 8.064C61.0403 7.544 60.9123 7.136 60.6563 6.84C60.4083 6.536 60.0043 6.384 59.4443 6.384C58.9003 6.384 58.4763 6.556 58.1723 6.9C57.8763 7.236 57.7163 7.688 57.6923 8.256H56.6363C56.6683 7.36 56.9403 6.668 57.4523 6.18C57.9643 5.692 58.6243 5.448 59.4323 5.448C60.2563 5.448 60.9083 5.676 61.3883 6.132C61.8763 6.588 62.1203 7.216 62.1203 8.016C62.1203 8.68 61.9203 9.328 61.5203 9.96C61.1283 10.584 60.6803 11.136 60.1763 11.616C59.6723 12.088 59.0283 12.64 58.2443 13.272H62.3723V14.184H56.6003V13.404ZM63.6346 9.852C63.6346 8.476 63.8586 7.404 64.3066 6.636C64.7546 5.86 65.5386 5.472 66.6586 5.472C67.7706 5.472 68.5506 5.86 68.9986 6.636C69.4466 7.404 69.6706 8.476 69.6706 9.852C69.6706 11.252 69.4466 12.34 68.9986 13.116C68.5506 13.892 67.7706 14.28 66.6586 14.28C65.5386 14.28 64.7546 13.892 64.3066 13.116C63.8586 12.34 63.6346 11.252 63.6346 9.852ZM68.5906 9.852C68.5906 9.156 68.5426 8.568 68.4466 8.088C68.3586 7.6 68.1706 7.208 67.8826 6.912C67.6026 6.616 67.1946 6.468 66.6586 6.468C66.1146 6.468 65.6986 6.616 65.4106 6.912C65.1306 7.208 64.9426 7.6 64.8466 8.088C64.7586 8.568 64.7146 9.156 64.7146 9.852C64.7146 10.572 64.7586 11.176 64.8466 11.664C64.9426 12.152 65.1306 12.544 65.4106 12.84C65.6986 13.136 66.1146 13.284 66.6586 13.284C67.1946 13.284 67.6026 13.136 67.8826 12.84C68.1706 12.544 68.3586 12.152 68.4466 11.664C68.5426 11.176 68.5906 10.572 68.5906 9.852ZM78.953 14.28L76.961 10.86H75.641V14.28H74.549V5.916H77.249C77.881 5.916 78.413 6.024 78.845 6.24C79.285 6.456 79.613 6.748 79.829 7.116C80.045 7.484 80.153 7.904 80.153 8.376C80.153 8.952 79.985 9.46 79.649 9.9C79.321 10.34 78.825 10.632 78.161 10.776L80.261 14.28H78.953ZM75.641 9.984H77.249C77.841 9.984 78.285 9.84 78.581 9.552C78.877 9.256 79.025 8.864 79.025 8.376C79.025 7.88 78.877 7.496 78.581 7.224C78.293 6.952 77.849 6.816 77.249 6.816H75.641V9.984ZM87.8498 10.74C87.8498 10.948 87.8378 11.168 87.8138 11.4H82.5578C82.5978 12.048 82.8178 12.556 83.2178 12.924C83.6258 13.284 84.1178 13.464 84.6938 13.464C85.1658 13.464 85.5578 13.356 85.8698 13.14C86.1898 12.916 86.4138 12.62 86.5418 12.252H87.7178C87.5418 12.884 87.1898 13.4 86.6618 13.8C86.1338 14.192 85.4778 14.388 84.6938 14.388C84.0698 14.388 83.5098 14.248 83.0138 13.968C82.5258 13.688 82.1418 13.292 81.8618 12.78C81.5818 12.26 81.4418 11.66 81.4418 10.98C81.4418 10.3 81.5778 9.704 81.8498 9.192C82.1218 8.68 82.5018 8.288 82.9898 8.016C83.4858 7.736 84.0538 7.596 84.6938 7.596C85.3178 7.596 85.8698 7.732 86.3498 8.004C86.8298 8.276 87.1978 8.652 87.4538 9.132C87.7178 9.604 87.8498 10.14 87.8498 10.74ZM86.7218 10.512C86.7218 10.096 86.6298 9.74 86.4458 9.444C86.2618 9.14 86.0098 8.912 85.6898 8.76C85.3778 8.6 85.0298 8.52 84.6458 8.52C84.0938 8.52 83.6218 8.696 83.2298 9.048C82.8458 9.4 82.6258 9.888 82.5698 10.512H86.7218ZM91.7392 13.272L93.7792 7.704H94.9432L92.3632 14.28H91.0912L88.5112 7.704H89.6872L91.7392 13.272ZM96.5818 6.636C96.3738 6.636 96.1978 6.564 96.0538 6.42C95.9098 6.276 95.8378 6.1 95.8378 5.892C95.8378 5.684 95.9098 5.508 96.0538 5.364C96.1978 5.22 96.3738 5.148 96.5818 5.148C96.7818 5.148 96.9498 5.22 97.0858 5.364C97.2298 5.508 97.3018 5.684 97.3018 5.892C97.3018 6.1 97.2298 6.276 97.0858 6.42C96.9498 6.564 96.7818 6.636 96.5818 6.636ZM97.1098 7.704V14.28H96.0178V7.704H97.1098ZM104.971 10.74C104.971 10.948 104.959 11.168 104.935 11.4H99.6789C99.7189 12.048 99.9389 12.556 100.339 12.924C100.747 13.284 101.239 13.464 101.815 13.464C102.287 13.464 102.679 13.356 102.991 13.14C103.311 12.916 103.535 12.62 103.663 12.252H104.839C104.663 12.884 104.311 13.4 103.783 13.8C103.255 14.192 102.599 14.388 101.815 14.388C101.191 14.388 100.631 14.248 100.135 13.968C99.6469 13.688 99.2629 13.292 98.9829 12.78C98.7029 12.26 98.5629 11.66 98.5629 10.98C98.5629 10.3 98.6989 9.704 98.9709 9.192C99.2429 8.68 99.6229 8.288 100.111 8.016C100.607 7.736 101.175 7.596 101.815 7.596C102.439 7.596 102.991 7.732 103.471 8.004C103.951 8.276 104.319 8.652 104.575 9.132C104.839 9.604 104.971 10.14 104.971 10.74ZM103.843 10.512C103.843 10.096 103.751 9.74 103.567 9.444C103.383 9.14 103.131 8.912 102.811 8.76C102.499 8.6 102.151 8.52 101.767 8.52C101.215 8.52 100.743 8.696 100.351 9.048C99.9669 9.4 99.7469 9.888 99.6909 10.512H103.843ZM115.172 7.704L113.12 14.28H111.992L110.408 9.06L108.824 14.28H107.696L105.632 7.704H106.748L108.26 13.224L109.892 7.704H111.008L112.604 13.236L114.092 7.704H115.172ZM118.584 14.388C118.08 14.388 117.628 14.304 117.228 14.136C116.828 13.96 116.512 13.72 116.28 13.416C116.048 13.104 115.92 12.748 115.896 12.348H117.024C117.056 12.676 117.208 12.944 117.48 13.152C117.76 13.36 118.124 13.464 118.572 13.464C118.988 13.464 119.316 13.372 119.556 13.188C119.796 13.004 119.916 12.772 119.916 12.492C119.916 12.204 119.788 11.992 119.532 11.856C119.276 11.712 118.88 11.572 118.344 11.436C117.856 11.308 117.456 11.18 117.144 11.052C116.84 10.916 116.576 10.72 116.352 10.464C116.136 10.2 116.028 9.856 116.028 9.432C116.028 9.096 116.128 8.788 116.328 8.508C116.528 8.228 116.812 8.008 117.18 7.848C117.548 7.68 117.968 7.596 118.44 7.596C119.168 7.596 119.756 7.78 120.204 8.148C120.652 8.516 120.892 9.02 120.924 9.66H119.832C119.808 9.316 119.668 9.04 119.412 8.832C119.164 8.624 118.828 8.52 118.404 8.52C118.012 8.52 117.7 8.604 117.468 8.772C117.236 8.94 117.12 9.16 117.12 9.432C117.12 9.648 117.188 9.828 117.324 9.972C117.468 10.108 117.644 10.22 117.852 10.308C118.068 10.388 118.364 10.48 118.74 10.584C119.212 10.712 119.596 10.84 119.892 10.968C120.188 11.088 120.44 11.272 120.648 11.52C120.864 11.768 120.976 12.092 120.984 12.492C120.984 12.852 120.884 13.176 120.684 13.464C120.484 13.752 120.2 13.98 119.832 14.148C119.472 14.308 119.056 14.388 118.584 14.388ZM122.178 16.512V16.404C123.002 15.556 123.626 14.568 124.05 13.44C124.482 12.312 124.698 11.128 124.698 9.888C124.698 8.616 124.47 7.392 124.014 6.216C123.566 5.032 122.894 4.02 121.998 3.18V3.072H123.138C123.978 3.848 124.622 4.836 125.07 6.036C125.526 7.228 125.754 8.512 125.754 9.888C125.754 11.232 125.538 12.484 125.106 13.644C124.682 14.804 124.086 15.76 123.318 16.512H122.178Z" fill="#FEB052"/>
<path d="M171.833 10.28C171.833 14.88 168.1 18.6133 163.5 18.6133C158.9 18.6133 155.167 14.88 155.167 10.28C155.167 5.68 158.9 1.94667 163.5 1.94667C168.1 1.94667 171.833 5.68 171.833 10.28Z" stroke="#4894FE" stroke-width="1.5" stroke-linecap="round" stroke-linejoin="round"/>
<path d="M166.592 12.93L164.008 11.3883C163.558 11.1217 163.192 10.48 163.192 9.955V6.53833" stroke="#4894FE" stroke-width="1.5" stroke-linecap="round" stroke-linejoin="round"/>
<path d="M184.216 14.364C183.44 14.364 182.732 14.184 182.092 13.824C181.452 13.456 180.944 12.948 180.568 12.3C180.2 11.644 180.016 10.908 180.016 10.092C180.016 9.276 180.2 8.544 180.568 7.896C180.944 7.24 181.452 6.732 182.092 6.372C182.732 6.004 183.44 5.82 184.216 5.82C185 5.82 185.712 6.004 186.352 6.372C186.992 6.732 187.496 7.236 187.864 7.884C188.232 8.532 188.416 9.268 188.416 10.092C188.416 10.916 188.232 11.652 187.864 12.3C187.496 12.948 186.992 13.456 186.352 13.824C185.712 14.184 185 14.364 184.216 14.364ZM184.216 13.416C184.8 13.416 185.324 13.28 185.788 13.008C186.26 12.736 186.628 12.348 186.892 11.844C187.164 11.34 187.3 10.756 187.3 10.092C187.3 9.42 187.164 8.836 186.892 8.34C186.628 7.836 186.264 7.448 185.8 7.176C185.336 6.904 184.808 6.768 184.216 6.768C183.624 6.768 183.096 6.904 182.632 7.176C182.168 7.448 181.8 7.836 181.528 8.34C181.264 8.836 181.132 9.42 181.132 10.092C181.132 10.756 181.264 11.34 181.528 11.844C181.8 12.348 182.168 12.736 182.632 13.008C183.104 13.28 183.632 13.416 184.216 13.416ZM190.95 8.916C191.166 8.54 191.486 8.228 191.91 7.98C192.342 7.724 192.842 7.596 193.41 7.596C193.994 7.596 194.522 7.736 194.994 8.016C195.474 8.296 195.85 8.692 196.122 9.204C196.394 9.708 196.53 10.296 196.53 10.968C196.53 11.632 196.394 12.224 196.122 12.744C195.85 13.264 195.474 13.668 194.994 13.956C194.522 14.244 193.994 14.388 193.41 14.388C192.85 14.388 192.354 14.264 191.922 14.016C191.498 13.76 191.174 13.444 190.95 13.068V17.4H189.858V7.704H190.95V8.916ZM195.414 10.968C195.414 10.472 195.314 10.04 195.114 9.672C194.914 9.304 194.642 9.024 194.298 8.832C193.962 8.64 193.59 8.544 193.182 8.544C192.782 8.544 192.41 8.644 192.066 8.844C191.73 9.036 191.458 9.32 191.25 9.696C191.05 10.064 190.95 10.492 190.95 10.98C190.95 11.476 191.05 11.912 191.25 12.288C191.458 12.656 191.73 12.94 192.066 13.14C192.41 13.332 192.782 13.428 193.182 13.428C193.59 13.428 193.962 13.332 194.298 13.14C194.642 12.94 194.914 12.656 195.114 12.288C195.314 11.912 195.414 11.472 195.414 10.968ZM203.967 10.74C203.967 10.948 203.955 11.168 203.931 11.4H198.675C198.715 12.048 198.935 12.556 199.335 12.924C199.743 13.284 200.235 13.464 200.811 13.464C201.283 13.464 201.675 13.356 201.987 13.14C202.307 12.916 202.531 12.62 202.659 12.252H203.835C203.659 12.884 203.307 13.4 202.779 13.8C202.251 14.192 201.595 14.388 200.811 14.388C200.187 14.388 199.627 14.248 199.131 13.968C198.643 13.688 198.259 13.292 197.979 12.78C197.699 12.26 197.559 11.66 197.559 10.98C197.559 10.3 197.695 9.704 197.967 9.192C198.239 8.68 198.619 8.288 199.107 8.016C199.603 7.736 200.171 7.596 200.811 7.596C201.435 7.596 201.987 7.732 202.467 8.004C202.947 8.276 203.315 8.652 203.571 9.132C203.835 9.604 203.967 10.14 203.967 10.74ZM202.839 10.512C202.839 10.096 202.747 9.74 202.563 9.444C202.379 9.14 202.127 8.912 201.807 8.76C201.495 8.6 201.147 8.52 200.763 8.52C200.211 8.52 199.739 8.696 199.347 9.048C198.963 9.4 198.743 9.888 198.687 10.512H202.839ZM208.612 7.584C209.412 7.584 210.06 7.828 210.556 8.316C211.052 8.796 211.3 9.492 211.3 10.404V14.28H210.22V10.56C210.22 9.904 210.056 9.404 209.728 9.06C209.4 8.708 208.952 8.532 208.384 8.532C207.808 8.532 207.348 8.712 207.004 9.072C206.668 9.432 206.5 9.956 206.5 10.644V14.28H205.408V7.704H206.5V8.64C206.716 8.304 207.008 8.044 207.376 7.86C207.752 7.676 208.164 7.584 208.612 7.584ZM215.875 10.968C215.875 10.296 216.011 9.708 216.283 9.204C216.555 8.692 216.927 8.296 217.399 8.016C217.879 7.736 218.411 7.596 218.995 7.596C219.571 7.596 220.071 7.72 220.495 7.968C220.919 8.216 221.235 8.528 221.443 8.904V7.704H222.547V14.28H221.443V13.056C221.227 13.44 220.903 13.76 220.471 14.016C220.047 14.264 219.551 14.388 218.983 14.388C218.399 14.388 217.871 14.244 217.399 13.956C216.927 13.668 216.555 13.264 216.283 12.744C216.011 12.224 215.875 11.632 215.875 10.968ZM221.443 10.98C221.443 10.484 221.343 10.052 221.143 9.684C220.943 9.316 220.671 9.036 220.327 8.844C219.991 8.644 219.619 8.544 219.211 8.544C218.803 8.544 218.431 8.64 218.095 8.832C217.759 9.024 217.491 9.304 217.291 9.672C217.091 10.04 216.991 10.472 216.991 10.968C216.991 11.472 217.091 11.912 217.291 12.288C217.491 12.656 217.759 12.94 218.095 13.14C218.431 13.332 218.803 13.428 219.211 13.428C219.619 13.428 219.991 13.332 220.327 13.14C220.671 12.94 220.943 12.656 221.143 12.288C221.343 11.912 221.443 11.476 221.443 10.98ZM225.725 8.604V12.48C225.725 12.8 225.793 13.028 225.929 13.164C226.065 13.292 226.301 13.356 226.637 13.356H227.441V14.28H226.457C225.849 14.28 225.393 14.14 225.089 13.86C224.785 13.58 224.633 13.12 224.633 12.48V8.604H223.781V7.704H224.633V6.048H225.725V7.704H227.441V8.604H225.725ZM231.495 6.6V5.604H233.751V14.28H232.647V6.6H231.495ZM240.967 6.456L237.631 14.28H236.527L239.911 6.564H235.279V5.628H240.967V6.456ZM242.706 14.352C242.498 14.352 242.322 14.28 242.178 14.136C242.034 13.992 241.962 13.816 241.962 13.608C241.962 13.4 242.034 13.224 242.178 13.08C242.322 12.936 242.498 12.864 242.706 12.864C242.906 12.864 243.074 12.936 243.21 13.08C243.354 13.224 243.426 13.4 243.426 13.608C243.426 13.816 243.354 13.992 243.21 14.136C243.074 14.28 242.906 14.352 242.706 14.352ZM244.697 9.852C244.697 8.476 244.921 7.404 245.369 6.636C245.817 5.86 246.601 5.472 247.721 5.472C248.833 5.472 249.613 5.86 250.061 6.636C250.509 7.404 250.733 8.476 250.733 9.852C250.733 11.252 250.509 12.34 250.061 13.116C249.613 13.892 248.833 14.28 247.721 14.28C246.601 14.28 245.817 13.892 245.369 13.116C244.921 12.34 244.697 11.252 244.697 9.852ZM249.653 9.852C249.653 9.156 249.605 8.568 249.509 8.088C249.421 7.6 249.233 7.208 248.945 6.912C248.665 6.616 248.257 6.468 247.721 6.468C247.177 6.468 246.761 6.616 246.473 6.912C246.193 7.208 246.005 7.6 245.909 8.088C245.821 8.568 245.777 9.156 245.777 9.852C245.777 10.572 245.821 11.176 245.909 11.664C246.005 12.152 246.193 12.544 246.473 12.84C246.761 13.136 247.177 13.284 247.721 13.284C248.257 13.284 248.665 13.136 248.945 12.84C249.233 12.544 249.421 12.152 249.509 11.664C249.605 11.176 249.653 10.572 249.653 9.852ZM252.232 9.852C252.232 8.476 252.456 7.404 252.904 6.636C253.352 5.86 254.136 5.472 255.256 5.472C256.368 5.472 257.148 5.86 257.596 6.636C258.044 7.404 258.268 8.476 258.268 9.852C258.268 11.252 258.044 12.34 257.596 13.116C257.148 13.892 256.368 14.28 255.256 14.28C254.136 14.28 253.352 13.892 252.904 13.116C252.456 12.34 252.232 11.252 252.232 9.852ZM257.188 9.852C257.188 9.156 257.14 8.568 257.044 8.088C256.956 7.6 256.768 7.208 256.48 6.912C256.2 6.616 255.792 6.468 255.256 6.468C254.712 6.468 254.296 6.616 254.008 6.912C253.728 7.208 253.54 7.6 253.444 8.088C253.356 8.568 253.312 9.156 253.312 9.852C253.312 10.572 253.356 11.176 253.444 11.664C253.54 12.152 253.728 12.544 254.008 12.84C254.296 13.136 254.712 13.284 255.256 13.284C255.792 13.284 256.2 13.136 256.48 12.84C256.768 12.544 256.956 12.152 257.044 11.664C257.14 11.176 257.188 10.572 257.188 9.852Z" fill="#4894FE"/>
</svg>
